<?xml version="1.0" encoding="UTF-8" standalone="no"?>
<!DOCTYPE svg PUBLIC "-//W3C//DTD SVG 1.1//EN" "http://www.w3.org/Graphics/SVG/1.1/DTD/svg11.dtd">
<svg version="1.1" xmlns="http://www.w3.org/2000/svg" xmlns:xlink="http://www.w3.org/1999/xlink" preserveAspectRatio="xMidYMid meet" viewBox="0 0 640 640" width="640" height="640"><defs><path d="M60 320C60 176.4 176.4 60 320 60C463.6 60 580 176.4 580 320C580 463.6 463.6 580 320 580C176.4 580 60 463.6 60 320Z" id="atLmTjiu1"></path><path d="M0 320C0 362.42 8.25 402.91 23.24 439.95C55.99 520.89 120.89 585.38 202.1 617.58C238.59 632.05 278.36 640 320 640C496.74 640 640 496.76 640 320C640 143.28 496.74 0 320 0C143.28 0 0 143.28 0 320Z" id="k4VD2k45vT"></path><path d="M376.86 485.75C376.86 516.29 351.38 541.09 320 541.09C288.62 541.09 263.14 516.29 263.14 485.75C263.14 455.2 288.62 430.4 320 430.4C351.38 430.4 376.86 455.2 376.86 485.75Z" id="d9ZP9euZm"></path><path d="M346.75 107.06C369.77 107.06 388.43 125.72 388.43 148.74C388.43 196.26 388.43 297.15 388.43 344.67C388.43 367.69 369.77 386.35 346.75 386.35C328.09 386.35 313.82 386.35 295.16 386.35C272.14 386.35 253.48 367.69 253.48 344.67C253.48 297.15 253.48 196.26 253.48 148.74C253.48 125.72 272.14 107.06 295.16 107.06C313.82 107.06 328.09 107.06 346.75 107.06Z" id="b2kk5wzZCt"></path><path d="M208.22 99.12C226.79 96.35 244.09 109.15 246.86 127.72C256.21 190.27 279.22 344.29 288.56 406.83C291.34 425.4 278.53 442.71 259.96 445.48C241.81 448.19 220.96 451.31 202.8 454.02C184.23 456.8 166.93 443.99 164.16 425.42C154.81 362.87 131.8 208.86 122.45 146.31C119.68 127.74 132.49 110.44 151.06 107.66C169.21 104.95 190.06 101.84 208.22 99.12Z" id="a4yL7IMQtC"></path><path d="M439.2 454.02C457.77 456.8 475.07 443.99 477.84 425.42C487.19 362.87 510.2 208.86 519.55 146.31C522.32 127.74 509.51 110.44 490.94 107.66C472.79 104.95 451.94 101.84 433.78 99.12C415.21 96.35 397.91 109.15 395.14 127.72C385.79 190.27 362.78 344.29 353.44 406.83C350.66 425.4 363.47 442.71 382.04 445.48C400.19 448.19 421.04 451.31 439.2 454.02Z" id="f1QktZu1J2"></path></defs><g><g><g><use xlink:href="#atLmTjiu1" opacity="1" fill="#e2574c" fill-opacity="1"></use><g><use xlink:href="#atLmTjiu1" opacity="1" fill-opacity="0" stroke="#000000" stroke-width="1" stroke-opacity="0"></use></g></g><g><use xlink:href="#k4VD2k45vT" opacity="1" fill="#c80000" fill-opacity="1"></use><g><use xlink:href="#k4VD2k45vT" opacity="1" fill-opacity="0" stroke="#000000" stroke-width="1" stroke-opacity="0"></use></g></g><g><use xlink:href="#d9ZP9euZm" opacity="1" fill="#ffffff" fill-opacity="1"></use></g><g><use xlink:href="#b2kk5wzZCt" opacity="1" fill="#ffffff" fill-opacity="1"></use></g><g><use xlink:href="#a4yL7IMQtC" opacity="1" fill="#c80000" fill-opacity="1"></use></g><g><use xlink:href="#f1QktZu1J2" opacity="1" fill="#c80000" fill-opacity="1"></use></g></g></g></svg>